<?xml version="1.0" encoding="UTF-8"?>
<svg version="1.1" xmlns="http://www.w3.org/2000/svg" width="64" height="64">
<path d="M0 0 C1.875 0.125 1.875 0.125 4 1 C4.2475 1.94875 4.495 2.8975 4.75 3.875 C5.64515749 7.0626946 5.64515749 7.0626946 7.8984375 8.0625 C9.91766571 8.79934117 11.92274246 9.44928521 14 10 C13.6875 12.375 13.6875 12.375 13 15 C9.77208445 17.1519437 8.71599191 17.20086443 5 17 C4.79503906 17.75925781 4.59007812 18.51851562 4.37890625 19.30078125 C4.10949219 20.29464844 3.84007812 21.28851562 3.5625 22.3125 C3.29566406 23.29863281 3.02882812 24.28476562 2.75390625 25.30078125 C2.21920575 27.21517526 1.62855462 29.11433615 1 31 C0.93029948 33.39490986 0.91551997 35.79167691 0.9375 38.1875 C0.94652344 39.45980469 0.95554688 40.73210938 0.96484375 42.04296875 C0.97644531 43.01878906 0.98804688 43.99460938 1 45 C1.99 45.495 1.99 45.495 3 46 C2.67 47.32 2.34 48.64 2 50 C-0.875 49.8125 -0.875 49.8125 -4 49 C-6.85605249 44.78392251 -6.63373571 38.96384501 -7 34 C-16.24076333 32.75500788 -16.24076333 32.75500788 -24.51953125 35.93359375 C-26.71804072 38.82636937 -28.38074778 41.76149557 -30 45 C-29.01 45 -28.02 45 -27 45 C-27 46.32 -27 47.64 -27 49 C-29.31 49 -31.62 49 -34 49 C-34.22226864 47.23086176 -34.42733873 45.45955629 -34.625 43.6875 C-34.74101563 42.70136719 -34.85703125 41.71523438 -34.9765625 40.69921875 C-35 38 -35 38 -33 35 C-32.83300768 31.87478167 -32.83300768 31.87478167 -33 29 C-33.66 29.66 -34.32 30.32 -35 31 C-37.65537372 31.56520003 -40.29144713 31.73788198 -43 32 C-43.33 30.35 -43.66 28.7 -44 27 C-42.33984375 26.12109375 -40.6796875 25.2421875 -39.01953125 24.36328125 C-36.81076101 22.98807834 -36.81076101 22.98807834 -34.74609375 20.5234375 C-31.50649757 17.54651129 -28.394571 16.45386458 -24.25 15.3125 C-23.54133789 15.10246338 -22.83267578 14.89242676 -22.10253906 14.67602539 C-18.34424447 13.58164785 -14.59754227 12.66853303 -10.75 11.9375 C-6.73298329 10.93324582 -5.35116359 10.34588665 -3 7 C-1.86017674 4.69557471 -0.92530492 2.40579278 0 0 Z " fill="#5BBFBD" transform="translate(47,7)"/>
<path d="M0 0 C0.99 0.33 1.98 0.66 3 1 C3 1.66 3 2.32 3 3 C3.99 3.33 4.98 3.66 6 4 C6 4.66 6 5.32 6 6 C5.01 6 4.02 6 3 6 C3 6.99 3 7.98 3 9 C2.01 9 1.02 9 0 9 C0 8.01 0 7.02 0 6 C-0.99 6 -1.98 6 -3 6 C-3 5.01 -3 4.02 -3 3 C-2.01 3 -1.02 3 0 3 C0 2.01 0 1.02 0 0 Z " fill="#D8E9E9" transform="translate(30,23)"/>
</svg>
