<?xml version="1.0" encoding="UTF-8"?>
<svg version="1.1" xmlns="http://www.w3.org/2000/svg" width="50" height="50">
<path d="M0 0 C3.40895248 1.37698988 6.07085899 3.43079409 8.89453125 5.73046875 C10.03984043 6.64258563 11.18567322 7.55404543 12.33203125 8.46484375 C13.16154297 9.1290332 13.16154297 9.1290332 14.0078125 9.80664062 C16.68780774 11.91140115 19.48586814 13.85283547 22.2890625 15.7890625 C22.71574219 16.20285156 23.14242187 16.61664062 23.58203125 17.04296875 C23.58203125 18.03296875 23.58203125 19.02296875 23.58203125 20.04296875 C22.59203125 20.04296875 21.60203125 20.04296875 20.58203125 20.04296875 C20.58203125 28.62296875 20.58203125 37.20296875 20.58203125 46.04296875 C6.72203125 46.04296875 -7.13796875 46.04296875 -21.41796875 46.04296875 C-21.41796875 37.46296875 -21.41796875 28.88296875 -21.41796875 20.04296875 C-22.40796875 20.04296875 -23.39796875 20.04296875 -24.41796875 20.04296875 C-24.03346801 17.59686163 -23.69563571 16.31865109 -21.91503906 14.55078125 C-21.28178711 14.09445312 -20.64853516 13.638125 -19.99609375 13.16796875 C-19.3 12.6575 -18.60390625 12.14703125 -17.88671875 11.62109375 C-17.15453125 11.1003125 -16.42234375 10.57953125 -15.66796875 10.04296875 C-14.23523149 9.00191505 -12.80293001 7.96026132 -11.37109375 6.91796875 C-10.34338867 6.18513672 -10.34338867 6.18513672 -9.29492188 5.4375 C-7.22044764 3.94216385 -7.22044764 3.94216385 -4.71484375 1.60546875 C-2.41796875 0.04296875 -2.41796875 0.04296875 0 0 Z M-9.41796875 17.04296875 C-10.92638086 21.04026085 -11.90692812 24.76457428 -11.41796875 29.04296875 C-10.75796875 29.70296875 -10.09796875 30.36296875 -9.41796875 31.04296875 C-8.42796875 31.04296875 -7.43796875 31.04296875 -6.41796875 31.04296875 C-6.41796875 29.06296875 -6.41796875 27.08296875 -6.41796875 25.04296875 C-5.09796875 25.04296875 -3.77796875 25.04296875 -2.41796875 25.04296875 C-2.74796875 27.02296875 -3.07796875 29.00296875 -3.41796875 31.04296875 C-0.12720879 30.66392667 -0.12720879 30.66392667 2.58203125 29.04296875 C2.5946457 26.77430374 2.5946457 26.77430374 2.33203125 24.16796875 C2.23148438 22.84152344 2.23148438 22.84152344 2.12890625 21.48828125 C1.50815242 18.71262482 0.79461581 17.7724083 -1.41796875 16.04296875 C-4.68860371 14.67141216 -6.6244396 14.80814543 -9.41796875 17.04296875 Z M-14.41796875 18.04296875 C-13.41796875 22.04296875 -13.41796875 22.04296875 -13.41796875 22.04296875 Z M4.58203125 18.04296875 C5.58203125 22.04296875 5.58203125 22.04296875 5.58203125 22.04296875 Z M5.58203125 27.04296875 C3.98542419 29.93206724 3.58203125 31.73355671 3.58203125 35.04296875 C1.27203125 34.71296875 -1.03796875 34.38296875 -3.41796875 34.04296875 C-3.14762241 36.48014133 -3.14762241 36.48014133 -2.41796875 39.04296875 C0.66723128 41.09976877 1.49476629 41.33763689 5.01953125 41.35546875 C6.16228516 41.38060547 6.16228516 41.38060547 7.328125 41.40625 C10.2227845 40.9396931 11.54702686 40.15130663 13.58203125 38.04296875 C14.10219221 35.60464037 14.10219221 35.60464037 13.89453125 32.98046875 C13.87003906 32.10261719 13.84554687 31.22476563 13.8203125 30.3203125 C13.71391901 28.01365374 13.71391901 28.01365374 12.58203125 26.04296875 C10.01293923 26.04296875 8.04088097 26.24384259 5.58203125 27.04296875 Z " fill="#5AC0BD" transform="translate(25.41796875,0.95703125)"/>
<path d="M0 0 C0.66 0.33 1.32 0.66 2 1 C2 1.66 2 2.32 2 3 C1.01 3 0.02 3 -1 3 C-0.67 2.01 -0.34 1.02 0 0 Z " fill="#5ABFBF" transform="translate(30,36)"/>
<path d="M0 0 C0.66 0 1.32 0 2 0 C2 0.66 2 1.32 2 2 C1.34 2 0.68 2 0 2 C0 1.34 0 0.68 0 0 Z " fill="#5ABFBD" transform="translate(32,34)"/>
<path d="M0 0 C0.66 0 1.32 0 2 0 C2 0.66 2 1.32 2 2 C1.34 2 0.68 2 0 2 C0 1.34 0 0.68 0 0 Z " fill="#5ABFBD" transform="translate(23,23)"/>
<path d="M0 0 C0.66 0 1.32 0 2 0 C2 0.66 2 1.32 2 2 C1.34 2 0.68 2 0 2 C0 1.34 0 0.68 0 0 Z " fill="#5ABFBD" transform="translate(17,23)"/>
</svg>
