<?xml version="1.0" encoding="UTF-8"?>
<svg version="1.1" xmlns="http://www.w3.org/2000/svg" width="30" height="30">
<path d="M0 0 C0.66 0 1.32 0 2 0 C2 1.65 2 3.3 2 5 C-0.31 5.33 -2.62 5.66 -5 6 C-5 6.99 -5 7.98 -5 9 C-4.01 8.34 -3.02 7.68 -2 7 C0.04296875 6.8046875 0.04296875 6.8046875 2.1875 6.875 C4.0746875 6.936875 4.0746875 6.936875 6 7 C6 6.01 6 5.02 6 4 C9.3 4 12.6 4 16 4 C16 6.97 16 9.94 16 13 C14.68 13.33 13.36 13.66 12 14 C12 17.63 12 21.26 12 25 C11.34 25 10.68 25 10 25 C10 22.36 10 19.72 10 17 C9.34 17 8.68 17 8 17 C8 19.64 8 22.28 8 25 C7.34 25 6.68 25 6 25 C5.34 22.36 4.68 19.72 4 17 C2.68 17 1.36 17 0 17 C-0.66 19.64 -1.32 22.28 -2 25 C-2.66 25 -3.32 25 -4 25 C-4 20.71 -4 16.42 -4 12 C-5.32 11.67 -6.64 11.34 -8 11 C-8 8.69 -8 6.38 -8 4 C-6.865625 3.71125 -5.73125 3.4225 -4.5625 3.125 C-3.386875 2.75375 -2.21125 2.3825 -1 2 C-0.67 1.34 -0.34 0.68 0 0 Z " fill="#5AC0BD" transform="translate(10,2)"/>
<path d="M0 0 C0.66 0 1.32 0 2 0 C2 2.64 2 5.28 2 8 C1.34 8 0.68 8 0 8 C0 5.36 0 2.72 0 0 Z " fill="#5ABFBD" transform="translate(10,19)"/>
</svg>
