<?xml version="1.0" encoding="UTF-8"?>
<svg version="1.1" xmlns="http://www.w3.org/2000/svg" width="64" height="64">
<path d="M0 0 C3.35916116 1.32500246 5.45801304 3.45801304 8 6 C8.3125 9.5 8.3125 9.5 8 13 C4.20836973 15.52775351 1.19125969 15.22443035 -3.1875 15.125 C-3.93708984 15.11597656 -4.68667969 15.10695313 -5.45898438 15.09765625 C-7.30612654 15.07412578 -9.15310412 15.03825561 -11 15 C-11 15.66 -11 16.32 -11 17 C-15.23379186 19.11689593 -20.84839782 18.18493005 -25.5 18.1875 C-26.66660156 18.19974609 -27.83320313 18.21199219 -29.03515625 18.22460938 C-30.70384766 18.22750977 -30.70384766 18.22750977 -32.40625 18.23046875 C-33.43041016 18.23457764 -34.45457031 18.23868652 -35.50976562 18.24291992 C-38 18 -38 18 -40 16 C-40.4375 13.1875 -40.4375 13.1875 -40 10 C-37.06725207 6.31311688 -34.45299032 4.41129505 -30 3 C-26.95596962 2.90689801 -23.97775143 3.06366351 -20.9375 3.22265625 C-13.35268658 2.64774353 -8.53912647 -0.99766176 0 0 Z M-13 8 C-9.04 8 -5.08 8 -1 8 C-2.93602047 5.62801043 -2.93602047 5.62801043 -6.4375 5.75 C-10.10420618 5.71190353 -10.10420618 5.71190353 -13 8 Z " fill="#59C0BD" transform="translate(48,32)"/>
<path d="M0 0 C2.125 0.41796875 2.125 0.41796875 4.625 2.04296875 C6.46933156 4.96316039 6.98414846 6.96710601 7.125 10.41796875 C6.36686193 13.3815994 5.51672773 14.99722415 3.4375 17.23046875 C0.08194997 18.95358904 -2.15517365 18.94004964 -5.875 18.41796875 C-8.78868224 16.4341851 -10.51058769 15.00348194 -11.3203125 11.48046875 C-11.52391198 7.89711797 -11.00065891 5.68021344 -9.4375 2.41796875 C-6.17093134 -0.13154825 -4.06116661 -0.24714336 0 0 Z " fill="#59C0BC" transform="translate(24.875,15.58203125)"/>
<path d="M0 0 C3.5 0.625 3.5 0.625 6.4375 2.625 C8.74498972 5.98134868 9.19967592 7.71536682 8.9140625 11.69140625 C8.21851452 14.9394841 7.01666056 16.49551798 4.5 18.625 C0.61059061 19.75646455 -1.53438646 20.01124541 -5.3125 18.5 C-7.90635973 16.27669166 -8.72735001 14.94739494 -9.5 11.625 C-9.41767236 7.67327334 -8.73756022 5.946405 -6.375 2.75 C-3.5 0.625 -3.5 0.625 0 0 Z M-0.5 6.625 C-1.49 7.12 -1.49 7.12 -2.5 7.625 C-2.17 9.275 -1.84 10.925 -1.5 12.625 C-0.18 12.295 1.14 11.965 2.5 11.625 C2.15213292 9.64963255 2.15213292 9.64963255 1.5 7.625 C0.84 7.295 0.18 6.965 -0.5 6.625 Z " fill="#58C0BD" transform="translate(41.5,11.375)"/>
</svg>
